<svg width="20" height="20" viewBox="0 0 20 20" fill="none" xmlns="http://www.w3.org/2000/svg">
<rect width="20" height="20" fill="#F6AE79"/>
<g clip-path="url(#clip0_0_1)">
<rect width="1440" height="4445" transform="translate(-82 -3817.68)" fill="#1E1E1E"/>
<rect width="1440" height="607" transform="translate(-82 -77.6758)" fill="#1E1E1E"/>
<path d="M12.2265 1.23917C12.2686 1.08209 12.3714 0.948142 12.5121 0.866734C12.6529 0.785326 12.8203 0.763113 12.9774 0.804973C14.4677 1.20572 15.8265 1.99105 16.9177 3.08228C18.0089 4.17351 18.7942 5.53232 19.1949 7.0226C19.2162 7.10057 19.2219 7.18199 19.2117 7.26217C19.2014 7.34235 19.1754 7.41971 19.1351 7.4898C19.0949 7.55989 19.0412 7.62133 18.9771 7.67059C18.913 7.71984 18.8398 7.75594 18.7617 7.77681C18.6836 7.79768 18.6022 7.8029 18.522 7.79218C18.4419 7.78147 18.3647 7.75501 18.2948 7.71435C18.225 7.67369 18.1639 7.61961 18.115 7.55524C18.0661 7.49087 18.0304 7.41747 18.01 7.33926C17.6652 6.05711 16.9896 4.88808 16.0507 3.94926C15.1119 3.01044 13.9429 2.3348 12.6607 1.99001C12.5829 1.96923 12.51 1.93332 12.446 1.88433C12.3821 1.83535 12.3284 1.77425 12.2881 1.70452C12.2478 1.6348 12.2216 1.55782 12.2111 1.47797C12.2005 1.39812 12.2058 1.31698 12.2265 1.23917ZM11.814 5.15009C12.5417 5.34572 13.2052 5.72916 13.738 6.26198C14.2708 6.7948 14.6543 7.45829 14.8499 8.18598C14.8919 8.34312 14.9946 8.47715 15.1354 8.55858C15.2762 8.64001 15.4436 8.66216 15.6008 8.62017C15.7579 8.57818 15.8919 8.47548 15.9734 8.33467C16.0548 8.19386 16.0769 8.02647 16.035 7.86933C15.7833 6.93351 15.2902 6.08025 14.605 5.39503C13.9197 4.7098 13.0665 4.21668 12.1307 3.96505C12.0529 3.94426 11.9717 3.93899 11.8919 3.94956C11.812 3.96013 11.735 3.98632 11.6653 4.02664C11.5245 4.10807 11.4218 4.2421 11.3798 4.39924C11.3378 4.55639 11.36 4.72378 11.4414 4.86459C11.5228 5.0054 11.6569 5.1081 11.814 5.15009ZM19.9897 15.1786C19.8184 16.5102 19.1682 17.734 18.1606 18.6213C17.1529 19.5085 15.8567 19.9986 14.514 20C6.51098 20 0 13.489 0 5.48596C0.00136708 4.14334 0.491447 2.84714 1.3787 1.83948C2.26595 0.831807 3.48968 0.18159 4.82132 0.010278C5.12874 -0.0267271 5.43988 0.0367805 5.70821 0.191303C5.97654 0.345826 6.18763 0.58306 6.30993 0.867526L8.36346 5.659C8.4567 5.87585 8.49473 6.11243 8.47414 6.34758C8.45356 6.58273 8.375 6.8091 8.24551 7.00646L6.54512 9.60457C6.5259 9.63252 6.51422 9.66497 6.51123 9.69876C6.50824 9.73256 6.51403 9.76655 6.52805 9.79744C7.31706 11.407 8.62212 12.7062 10.2353 13.4879C10.2663 13.5018 10.3005 13.5074 10.3344 13.5041C10.3682 13.5009 10.4007 13.4889 10.4285 13.4693L12.9874 11.763C13.1853 11.6305 13.4132 11.5497 13.6504 11.5279C13.8875 11.5061 14.1264 11.5441 14.3451 11.6383L19.1324 13.6901C19.4169 13.8123 19.6541 14.0234 19.8087 14.2917C19.9632 14.56 20.0267 14.8712 19.9897 15.1786ZM18.7728 15.0249C18.7773 14.9816 18.7677 14.9379 18.7455 14.9005C18.7232 14.8631 18.6894 14.834 18.6491 14.8174L13.8619 12.7657C13.8307 12.7523 13.7966 12.7469 13.7627 12.75C13.7288 12.7531 13.6963 12.7646 13.6679 12.7835L11.1091 14.4899C10.9035 14.6274 10.6658 14.7092 10.4191 14.7272C10.1725 14.7451 9.92535 14.6987 9.70202 14.5925C7.84135 13.6908 6.33602 12.1923 5.4259 10.3357C5.3192 10.1137 5.2717 9.86786 5.288 9.62209C5.30429 9.37631 5.38384 9.13892 5.51891 8.93294L7.2192 6.33472C7.23772 6.3065 7.24896 6.27414 7.2519 6.24051C7.25485 6.20689 7.24941 6.17306 7.23607 6.14205L5.18264 1.35078C5.16739 1.31428 5.14185 1.28301 5.10912 1.26079C5.07639 1.23858 5.0379 1.22637 4.99835 1.22568C4.99059 1.2257 4.98284 1.22621 4.97515 1.22721C3.93961 1.36056 2.98803 1.86634 2.29819 2.65007C1.60834 3.4338 1.2274 4.44187 1.22654 5.48596C1.23052 9.0088 2.63172 12.3862 5.12275 14.8772C7.61378 17.3683 10.9912 18.7695 14.514 18.7735C15.5581 18.7726 16.5662 18.3917 17.3499 17.7018C18.1337 17.012 18.6394 16.0604 18.7728 15.0249Z" fill="#F4F2F1"/>
</g>
<defs>
<clipPath id="clip0_0_1">
<rect width="1440" height="4445" fill="white" transform="translate(-82 -3817.68)"/>
</clipPath>
</defs>
</svg>
