<svg width="20" height="20" viewBox="0 0 20 20" fill="none" xmlns="http://www.w3.org/2000/svg">
<rect width="20" height="20" fill="#F6AE79"/>
<g clip-path="url(#clip0_0_1)">
<rect width="1440" height="4445" transform="translate(-78 -3893)" fill="#1E1E1E"/>
<rect width="1440" height="607" transform="translate(-78 -153)" fill="#1E1E1E"/>
<path d="M9.99852 12.013C7.72762 12.013 5.87256 10.4044 5.87256 8.41468C5.87256 6.42494 7.72762 4.82568 9.99852 4.82568C12.2694 4.82568 14.1244 6.43424 14.1244 8.42397C14.1244 10.4137 12.2694 12.013 9.99852 12.013ZM9.99852 6.22038C8.61255 6.22038 7.47175 7.20597 7.47175 8.42397C7.47175 9.64201 8.60189 10.6276 9.99852 10.6276C11.3951 10.6276 12.5252 9.64201 12.5252 8.42397C12.5252 7.20597 11.3845 6.22038 9.99852 6.22038Z" fill="#F4F2F1"/>
<path d="M9.99671 20C8.41884 20 6.8303 19.4793 5.59359 18.4472C2.44851 15.8066 -1.02706 11.5946 0.284274 6.58298C1.46768 2.03626 6.02004 0 9.99671 0H10.0074C13.984 0 18.5364 2.03626 19.7198 6.59228C21.0205 11.6039 17.5449 15.8066 14.3998 18.4472C13.1631 19.4793 11.5746 20 9.99671 20ZM9.99671 1.3947C6.89427 1.3947 2.90695 2.83589 1.85148 6.88982C0.700064 11.2692 3.8558 15.0442 6.71303 17.4338C8.55744 18.9865 11.4466 18.9865 13.291 17.4338C16.1376 15.0442 19.2934 11.2692 18.1633 6.88982C17.0971 2.83589 13.0991 1.3947 9.99671 1.3947Z" fill="#F4F2F1"/>
</g>
<defs>
<clipPath id="clip0_0_1">
<rect width="1440" height="4445" fill="white" transform="translate(-78 -3893)"/>
</clipPath>
</defs>
</svg>
