<svg width="18" height="20" viewBox="0 0 18 20" fill="none" xmlns="http://www.w3.org/2000/svg">
<rect width="18" height="20" fill="#F6AE79"/>
<g clip-path="url(#clip0_0_1)">
<rect width="1440" height="4445" transform="translate(-80 -3973)" fill="#1E1E1E"/>
<rect width="1440" height="607" transform="translate(-80 -233)" fill="#1E1E1E"/>
<path d="M13.4258 2.22653V0.722898C13.4258 0.327714 13.0938 0 12.6935 0C12.2931 0 11.9612 0.327714 11.9612 0.722898V2.1687H5.61439V0.722898C5.61439 0.327714 5.2824 0 4.88207 0C4.48173 0 4.14975 0.327714 4.14975 0.722898V2.22653C1.51339 2.46749 0.234267 4.01932 0.038981 6.32295C0.0194524 6.60247 0.253795 6.8338 0.527195 6.8338H17.0483C17.3315 6.8338 17.5659 6.59283 17.5366 6.32295C17.3413 4.01932 16.0622 2.46749 13.4258 2.22653Z" fill="#F4F2F1"/>
<path d="M16.5993 8.27954H0.976429C0.439393 8.27954 0 8.71324 0 9.24337V15.1808C0 18.0724 1.46464 20.0001 4.88215 20.0001H12.6936C16.1111 20.0001 17.5757 18.0724 17.5757 15.1808V9.24337C17.5757 8.71324 17.1363 8.27954 16.5993 8.27954ZM6.06362 16.3471C6.0148 16.3856 5.96598 16.4338 5.91716 16.4627C5.85857 16.5013 5.79999 16.5302 5.7414 16.5495C5.68282 16.5784 5.62423 16.5977 5.56565 16.6073C5.4973 16.6169 5.43871 16.6266 5.37036 16.6266C5.24342 16.6266 5.11649 16.5977 4.99932 16.5495C4.87238 16.5013 4.77474 16.4338 4.6771 16.3471C4.50134 16.1639 4.39393 15.9133 4.39393 15.6627C4.39393 15.4121 4.50134 15.1615 4.6771 14.9784C4.77474 14.8916 4.87238 14.8241 4.99932 14.776C5.17507 14.6988 5.37036 14.6796 5.56565 14.7181C5.62423 14.7278 5.68282 14.747 5.7414 14.776C5.79999 14.7952 5.85857 14.8241 5.91716 14.8627C5.96598 14.9013 6.0148 14.9398 6.06362 14.9784C6.23938 15.1615 6.34679 15.4121 6.34679 15.6627C6.34679 15.9133 6.23938 16.1639 6.06362 16.3471ZM6.06362 12.9735C5.8781 13.147 5.62423 13.253 5.37036 13.253C5.11649 13.253 4.86262 13.147 4.6771 12.9735C4.50134 12.7904 4.39393 12.5398 4.39393 12.2892C4.39393 12.0386 4.50134 11.788 4.6771 11.6048C4.9505 11.335 5.38012 11.2482 5.7414 11.4024C5.86834 11.4506 5.97575 11.5181 6.06362 11.6048C6.23938 11.788 6.34679 12.0386 6.34679 12.2892C6.34679 12.5398 6.23938 12.7904 6.06362 12.9735ZM9.48113 16.3471C9.2956 16.5205 9.04173 16.6266 8.78786 16.6266C8.53399 16.6266 8.28012 16.5205 8.0946 16.3471C7.91884 16.1639 7.81143 15.9133 7.81143 15.6627C7.81143 15.4121 7.91884 15.1615 8.0946 14.9784C8.45588 14.6217 9.11985 14.6217 9.48113 14.9784C9.65688 15.1615 9.76429 15.4121 9.76429 15.6627C9.76429 15.9133 9.65688 16.1639 9.48113 16.3471ZM9.48113 12.9735C9.43231 13.0121 9.38348 13.0506 9.33466 13.0892C9.27608 13.1277 9.21749 13.1567 9.15891 13.1759C9.10032 13.2049 9.04173 13.2241 8.98315 13.2338C8.9148 13.2434 8.85621 13.253 8.78786 13.253C8.53399 13.253 8.28012 13.147 8.0946 12.9735C7.91884 12.7904 7.81143 12.5398 7.81143 12.2892C7.81143 12.0386 7.91884 11.788 8.0946 11.6048C8.18248 11.5181 8.28988 11.4506 8.41682 11.4024C8.7781 11.2482 9.20773 11.335 9.48113 11.6048C9.65688 11.788 9.76429 12.0386 9.76429 12.2892C9.76429 12.5398 9.65688 12.7904 9.48113 12.9735ZM12.8986 16.3471C12.7131 16.5205 12.4592 16.6266 12.2054 16.6266C11.9515 16.6266 11.6976 16.5205 11.5121 16.3471C11.3363 16.1639 11.2289 15.9133 11.2289 15.6627C11.2289 15.4121 11.3363 15.1615 11.5121 14.9784C11.8734 14.6217 12.5373 14.6217 12.8986 14.9784C13.0744 15.1615 13.1818 15.4121 13.1818 15.6627C13.1818 15.9133 13.0744 16.1639 12.8986 16.3471ZM12.8986 12.9735C12.8498 13.0121 12.801 13.0506 12.7522 13.0892C12.6936 13.1277 12.635 13.1567 12.5764 13.1759C12.5178 13.2049 12.4592 13.2241 12.4006 13.2338C12.3323 13.2434 12.2639 13.253 12.2054 13.253C11.9515 13.253 11.6976 13.147 11.5121 12.9735C11.3363 12.7904 11.2289 12.5398 11.2289 12.2892C11.2289 12.0386 11.3363 11.788 11.5121 11.6048C11.6097 11.5181 11.7074 11.4506 11.8343 11.4024C12.0101 11.3253 12.2054 11.306 12.4006 11.3446C12.4592 11.3542 12.5178 11.3735 12.5764 11.4024C12.635 11.4217 12.6936 11.4506 12.7522 11.4892L12.8986 11.6048C13.0744 11.788 13.1818 12.0386 13.1818 12.2892C13.1818 12.5398 13.0744 12.7904 12.8986 12.9735Z" fill="#F4F2F1"/>
</g>
<defs>
<clipPath id="clip0_0_1">
<rect width="1440" height="4445" fill="white" transform="translate(-80 -3973)"/>
</clipPath>
</defs>
</svg>
